PathFileType	4	(X/Y/Z)	70_2_9_p0_0-139_filt_butterworth.trc
DataRate	CameraRate	NumFrames	NumMarkers	Units	OrigDataRate	OrigDataStartFrame	OrigNumFrames
43.0	43.0	5	27	m	43.0	121	139
Frame#	Time	RHip			RKnee			RAnkle			RBigToe			RSmallToe			RHeel			LHip			LKnee			LAnkle			LBigToe			LSmallToe			LHeel			Neck			Head			Nose			RShoulder			RElbow			RWrist			RThumb			RIndex			RPinky			LShoulder			LElbow			LWrist			LThumb			LIndex			LPinky			
		X1	Y1	Z1	X2	Y2	Z2	X3	Y3	Z3	X4	Y4	Z4	X5	Y5	Z5	X6	Y6	Z6	X7	Y7	Z7	X8	Y8	Z8	X9	Y9	Z9	X10	Y10	Z10	X11	Y11	Z11	X12	Y12	Z12	X13	Y13	Z13	X14	Y14	Z14	X15	Y15	Z15	X16	Y16	Z16	X17	Y17	Z17	X18	Y18	Z18	X19	Y19	Z19	X20	Y20	Z20	X21	Y21	Z21	X22	Y22	Z22	X23	Y23	Z23	X24	Y24	Z24	X25	Y25	Z25	X26	Y26	Z26	X27	Y27	Z27	
121	2.813953488372093	0.3785531704510994	0.493441613057402	0.1020177464485873	0.3776238996601339	0.6711703541949905	0.48830645823426444	0.3936346886785118	0.8058582884620532	0.9186429660829295	0.33037530631323914	0.6521301326460758	0.9994250755927722	0.4067605521921921	0.6433560029720167	0.9872880353588576	0.38378750738766626	0.9196414706151487	0.9897392329328294	0.1576854392207101	0.5259656328805085	0.09595390511116747	0.1817576985230323	0.6587365841664032	0.4913884353432567	0.17254347562942485	0.8276130780292974	0.908703980977571	0.16152030475187032	0.6444639296728873	0.975350535212653	0.1109993333021939	0.7164243189020354	0.9757353242125462	0.20265036251841634	0.901229796117538	0.9655717262580246	0.2491422069700541	0.39285175322542126	-0.5452668624266331	0.2228276935806656	0.30264358502313227	-0.7979415346071428	0.21774302614151014	0.2641107024384231	-0.6344649732566006	0.4410215403981719	0.3861546503884002	-0.452973681823195	0.5124328990524155	0.46609012190382904	-0.16686078783349523	0.448018424558989	0.3953263811410396	0.1094971518632944	0.3671741974951738	0.37294250462177314	0.21978177659388332	0.3706878813456747	0.35385061999821255	0.2416285751176868	0.4410560761700647	0.40554181795406974	0.24297022565258025	0.08075061850174284	0.48758892587821934	-0.4566429075026943	0.004743144760681691	0.5743320983165308	-0.18660013418984178	0.04481271837062263	0.487914837963169	0.08315908760163722	0.10696058683206609	0.4324786047227668	0.16586713396211394	0.09864560195360797	0.42660661426163743	0.20863447707856458	0.040812162683543415	0.4888369379634776	0.21285685530493717
122	2.8372093023255816	0.37852897844522293	0.49360278271943636	0.10202206752163322	0.37747648685027296	0.6708652838011795	0.48761226911326166	0.3932266884772523	0.8048268028228482	0.9176206805774838	0.33296346966727297	0.6519980403352909	0.9999111695764621	0.40835664440926006	0.6464303561949435	0.9891174987020088	0.3838893768998787	0.9196674054897757	0.9886018430254357	0.15373948118320044	0.5300886284070758	0.09487305221789245	0.18102183293608012	0.6653236730931856	0.4907416434748063	0.17253974602982589	0.8276807780205685	0.9088244167312006	0.16393716319439608	0.6502769643506996	0.9754929094230654	0.11195056143808813	0.7119895884810495	0.9730384179563465	0.20268971102179317	0.9013207192053139	0.9677735285505282	0.24922740421819634	0.3933122962056363	-0.5453780375159472	0.22489662373404196	0.30747324745133575	-0.8003300456175708	0.21771316879206182	0.26650813147414537	-0.6356651466586865	0.4404372878723148	0.38975180310449603	-0.45256990677655423	0.5077555808825257	0.46316328103449506	-0.1667440953738125	0.44568595887984086	0.3896084382974862	0.1042703832637442	0.3645252167907206	0.3600771173807131	0.2128649212946132	0.36835692041268936	0.34437830896612454	0.23748187089800032	0.44003169154676547	0.40138443574738175	0.23786747857894863	0.08064409626293205	0.4875152843982813	-0.4566714375982161	0.0047390003247366865	0.5742174140729068	-0.18341459207773364	0.04372610183968752	0.48181709848797727	0.08274446302453528	0.10579644581704283	0.42712743446346146	0.166945987216816	0.09242916352750358	0.4142561595757223	0.20953215982637846	0.03501977481923517	0.46509916484879477	0.2101050077979585
123	2.86046511627907	0.3782718401937508	0.49355475722375475	0.10176998501248696	0.3777852580292509	0.6714921430033471	0.48755714460671484	0.3925806914283469	0.803451855702607	0.9147198253830133	0.33419037512542166	0.6544730899419579	1.0016743940571324	0.40834232449568897	0.6525558921233316	0.9903561509143564	0.3821902801867848	0.9155756651241798	0.9864415603021158	0.15232644147252375	0.5355857392288392	0.09144608414394383	0.18000254543844285	0.6693073027492124	0.49078688675779764	0.17251778336539217	0.8275638819028402	0.9088149738608923	0.16571054653409611	0.6534043742456633	0.9755931638373613	0.11335985069127909	0.7050212700867285	0.9686614307730891	0.20270325346964232	0.9013571152745493	0.9670563663471596	0.24840354994245029	0.39735195241910304	-0.5461326033982267	0.22611360005142558	0.3104166435861104	-0.8028567399340325	0.21737644424093583	0.27113479075769364	-0.6377825811801482	0.43854481284287716	0.39547145205237344	-0.45251556614644545	0.5021287122565843	0.45690288081882624	-0.1689303218609347	0.4423223217003139	0.3858392230756782	0.10084521378857658	0.3605968497351959	0.3555506886369331	0.20913198853363277	0.3666967697391777	0.3344376369667529	0.23186158283762653	0.4371583131843827	0.3967991628798577	0.2331954570503869	0.08060433161223844	0.4876478463141537	-0.4566291596675278	0.0045891121854003125	0.5760121865612154	-0.18286665663207274	0.0410161474744615	0.47015200724722606	0.07870143410794357	0.10564129855068408	0.418057613586648	0.16491842469656842	0.08311057158335004	0.3896458547079896	0.20504386747025904	0.032489266445563186	0.4275967415509177	0.2053309168679674
124	2.883720930232558	0.377876470760393	0.49303458387767807	0.10199951935606222	0.3778181371540866	0.6715909921995	0.48780795551941525	0.3921165340135886	0.8027980582701235	0.9119224561264145	0.33339941732932643	0.6614742771071422	1.004174478029955	0.40649799004071274	0.657150931788276	0.990706861795994	0.37919700947793356	0.9081823265560836	0.9846786600543675	0.1523345494055461	0.5382808519863895	0.09034564495391664	0.1792562269218744	0.6694616255771982	0.4927545392609624	0.1724839522302203	0.827307074515591	0.908629347666603	0.16618418509384894	0.6534457594712398	0.975582669928912	0.1141753869144996	0.700782667576393	0.9659604003719587	0.20278683953369742	0.9014149511256131	0.9625039186059046	0.24612302890263354	0.40351527363596046	-0.5471436787548417	0.2260894708696598	0.3106560387954336	-0.8039578700337447	0.2163053103484192	0.27443574643203084	-0.6410139815956687	0.4359993628267873	0.3997355612806198	-0.4536346586381198	0.49619091687155015	0.44938290482118576	-0.1736217317990812	0.4377405139550996	0.382139582048719	0.09859733149028196	0.35579558618963103	0.3614318665607823	0.2072254728592708	0.3644817263496778	0.32935214886544556	0.22503633333226994	0.42593615622365066	0.38534300189225645	0.22705889161364962	0.0807294120479382	0.4878570741710462	-0.4564959081139832	0.004763382391635224	0.5756542363683588	-0.18334619367399135	0.03931393860932599	0.44953778616899576	0.07192365848870605	0.10575765528706181	0.39612031094562916	0.15727539344975183	0.07125867648054132	0.3582084166481393	0.19706795157350246	0.03495181149933572	0.3862565230562041	0.20009434737185955
125	2.9069767441860463	0.3776084196964108	0.4927268762363389	0.10433366029165887	0.3775951355450154	0.6713529685023143	0.487838762607513	0.3920174456846026	0.8027342248085872	0.9115844077489443	0.3325512562374966	0.6666878431096404	1.005766051819372	0.4044450469448342	0.657253915868812	0.9904155648382174	0.37719261148702093	0.9028864178889189	0.9840258221895294	0.15236585463959318	0.5378948348991799	0.0942064824652728	0.17949519643156966	0.6684406522935198	0.4952431198997867	0.17245772612773036	0.8271417452054568	0.9084586335708192	0.1662272329521886	0.6534310967829078	0.9755383474206141	0.11423924112723045	0.7002967538614053	0.9656938277326286	0.20254812624482224	0.9016339458539264	0.9614373846899045	0.24355855266800602	0.407142997098842	-0.54769924150983	0.22583984372300356	0.310313464193513	-0.8037795455208544	0.21506634922879816	0.2750677949111111	-0.6437692309168956	0.4340483150094348	0.40393589789612566	-0.455967872008407	0.4910157691426592	0.4433161777275461	-0.1772216697963956	0.43214549507007777	0.3764601626642005	0.09656286368354827	0.3507101504170791	0.37290602642401594	0.20476035215536564	0.36086484048367307	0.32944468631600043	0.21790966972989775	0.40695476160481253	0.37052371991782773	0.2200419076785191	0.08065576290078036	0.4876908211264237	-0.4563214643810477	0.0059554326108082825	0.5711951916260514	-0.18327936357465624	0.042493592200931324	0.42446228639544853	0.06574420561843992	0.107232060825698	0.3579613092602061	0.14664458891393892	0.06388079961410076	0.3305714532152446	0.19017482767029184	0.0400173049302995	0.3561196075360667	0.19640409307696752
